<svg width="80" height="80" viewBox="0 0 80 80" fill="none" xmlns="http://www.w3.org/2000/svg">
<path d="M16.6667 29.9993C18.4348 29.9993 20.1305 29.297 21.3807 28.0467C22.631 26.7965 23.3333 25.1008 23.3333 23.3327C23.3333 21.5646 22.631 19.8689 21.3807 18.6186C20.1305 17.3684 18.4348 16.666 16.6667 16.666C14.8986 16.666 13.2029 17.3684 11.9526 18.6186C10.7024 19.8689 10 21.5646 10 23.3327C10 25.1008 10.7024 26.7965 11.9526 28.0467C13.2029 29.297 14.8986 29.9993 16.6667 29.9993ZM16.6667 29.9993V33.3327M16.6667 56.666V53.3327M16.6667 56.666C18.4348 56.666 20.1305 57.3684 21.3807 58.6186C22.631 59.8689 23.3333 61.5646 23.3333 63.3327M16.6667 56.666C14.8986 56.666 13.2029 57.3684 11.9526 58.6186C10.7024 59.8689 10 61.5646 10 63.3327C10 65.1008 10.7024 66.7965 11.9526 68.0467C13.2029 69.297 14.8986 69.9993 16.6667 69.9993C18.4348 69.9993 20.1305 69.297 21.3807 68.0467C22.631 66.7965 23.3333 65.1008 23.3333 63.3327M23.3333 63.3327H26.6667M56.6667 56.666C57.9852 56.666 59.2741 57.057 60.3705 57.7895C61.4668 58.5221 62.3213 59.5633 62.8259 60.7815C63.3304 61.9996 63.4625 63.3401 63.2052 64.6333C62.948 65.9265 62.3131 67.1144 61.3807 68.0467C60.4484 68.9791 59.2605 69.614 57.9673 69.8712C56.6741 70.1285 55.3336 69.9965 54.1154 69.4919C52.8973 68.9873 51.8561 68.1328 51.1235 67.0365C50.391 65.9402 50 64.6512 50 63.3327M56.6667 56.666C54.8986 56.666 53.2029 57.3684 51.9526 58.6186C50.7024 59.8689 50 61.5646 50 63.3327M56.6667 56.666V53.3327M50 63.3327H46.6667" stroke="black" stroke-width="7.33333" stroke-linecap="round" stroke-linejoin="round"/>
<path d="M16.6668 46.6667C18.5078 46.6667 20.0002 45.1743 20.0002 43.3333C20.0002 41.4924 18.5078 40 16.6668 40C14.8259 40 13.3335 41.4924 13.3335 43.3333C13.3335 45.1743 14.8259 46.6667 16.6668 46.6667Z" fill="black"/>
<path d="M36.6668 66.6667C38.5078 66.6667 40.0002 65.1743 40.0002 63.3333C40.0002 61.4924 38.5078 60 36.6668 60C34.8259 60 33.3335 61.4924 33.3335 63.3333C33.3335 65.1743 34.8259 66.6667 36.6668 66.6667Z" fill="black"/>
<path d="M70.0002 23.3333C70.0002 32.0367 56.6668 43.3333 56.6668 43.3333C56.6668 43.3333 43.3335 32.0367 43.3335 23.3333C43.3335 14.63 49.3002 10 56.6668 10C64.0335 10 70.0002 14.63 70.0002 23.3333Z" stroke="black" stroke-width="7.33333" stroke-linecap="round" stroke-linejoin="round"/>
<path d="M56.6668 26.6667C58.5078 26.6667 60.0002 25.1743 60.0002 23.3333C60.0002 21.4924 58.5078 20 56.6668 20C54.8259 20 53.3335 21.4924 53.3335 23.3333C53.3335 25.1743 54.8259 26.6667 56.6668 26.6667Z" fill="black"/>
</svg>
