<svg width="80" height="80" viewBox="0 0 80 80" fill="none" xmlns="http://www.w3.org/2000/svg">
<path d="M68.185 11.8156L76.565 13.4906C77.015 13.5806 77.385 13.9106 77.515 14.3556C77.5807 14.5718 77.5865 14.8017 77.5319 15.0209C77.4773 15.2401 77.3644 15.4405 77.205 15.6006L70.34 22.4706C69.5186 23.2904 68.4055 23.7508 67.245 23.7506H61.55L47.25 38.0556C47.5228 39.0857 47.573 40.1621 47.3972 41.2131C47.2214 42.2642 46.8236 43.2657 46.2304 44.1509C45.6371 45.0361 44.8621 45.7848 43.9568 46.347C43.0516 46.9092 42.0369 47.272 40.9805 47.4114C39.924 47.5507 38.8499 47.4633 37.8299 47.1549C36.8099 46.8466 35.8672 46.3244 35.0648 45.6232C34.2624 44.922 33.6186 44.0579 33.1764 43.0884C32.7341 42.1188 32.5035 41.0662 32.5 40.0006C32.5008 38.8501 32.766 37.7151 33.2753 36.6834C33.7846 35.6517 34.5243 34.7509 35.4372 34.0507C36.3501 33.3504 37.4118 32.8694 38.5402 32.6449C39.6686 32.4203 40.8336 32.4582 41.945 32.7556L56.25 18.4456V12.7606C56.25 11.6006 56.71 10.4856 57.53 9.66559L64.4 2.7956C64.5601 2.63624 64.7605 2.52326 64.9797 2.46868C65.1989 2.41409 65.4288 2.41994 65.645 2.4856C66.09 2.6156 66.42 2.98559 66.51 3.43559L68.185 11.8156Z" fill="black"/>
<path d="M9.99948 40.0039C10.0046 44.2937 10.9297 48.5325 12.7123 52.4344C14.4949 56.3363 17.0936 59.8105 20.3331 62.6226C23.5726 65.4348 27.3775 67.5195 31.4912 68.7361C35.6048 69.9528 39.9316 70.273 44.1795 69.6753C48.4275 69.0776 52.4979 67.5758 56.1161 65.2712C59.7343 62.9666 62.8162 59.9129 65.1538 56.316C67.4915 52.7191 69.0306 48.6626 69.6672 44.4203C70.3039 40.178 70.0233 35.8485 68.8445 31.7239C68.679 31.242 68.6133 30.7315 68.6514 30.2234C68.6895 29.7153 68.8305 29.2203 69.0661 28.7684C69.3016 28.3166 69.6266 27.9175 70.0213 27.5953C70.416 27.2731 70.8721 27.0346 71.362 26.8943C71.8518 26.754 72.365 26.7148 72.8705 26.7792C73.3759 26.8436 73.8629 27.0102 74.3019 27.2689C74.7409 27.5275 75.1227 27.8728 75.424 28.2837C75.7253 28.6945 75.9398 29.1624 76.0545 29.6589C78.3371 37.6465 77.9035 46.1659 74.8217 53.8805C71.74 61.5952 66.1844 68.0685 59.0265 72.2849C51.8687 76.5014 43.5137 78.2223 35.2722 77.1779C27.0308 76.1334 19.3692 72.3826 13.4895 66.5139C7.61619 60.6356 3.86136 52.9733 2.8145 44.73C1.76764 36.4866 3.48804 28.129 7.70559 20.9692C11.9231 13.8095 18.399 8.2532 26.1165 5.17259C33.8339 2.09198 42.3559 1.66155 50.3445 3.94888C51.2957 4.22694 52.0982 4.87022 52.5765 5.73814C53.0549 6.60606 53.1702 7.62805 52.8974 8.58076C52.6245 9.53348 51.9856 10.3394 51.1203 10.8225C50.255 11.3056 49.2337 11.4265 48.2795 11.1589C43.8124 9.87721 39.1086 9.6507 34.5391 10.4972C29.9695 11.3437 25.659 13.2401 21.9474 16.0369C18.2359 18.8336 15.2247 22.4543 13.1513 26.6135C11.0779 30.7726 9.99892 35.3566 9.99948 40.0039Z" fill="black"/>
<path d="M24.9999 39.9987C25.0002 42.7317 25.7467 45.4127 27.1588 47.7525C28.5709 50.0924 30.595 52.0024 33.0128 53.2764C35.4306 54.5504 38.1504 55.1401 40.8788 54.9819C43.6072 54.8237 46.2406 53.9236 48.495 52.3787C50.7489 50.8299 52.5366 48.6944 53.6646 46.203C54.7926 43.7117 55.2181 40.9594 54.895 38.2437C54.8076 37.5847 54.8974 36.9143 55.1552 36.3016C55.413 35.6889 55.8295 35.1559 56.3617 34.7576C56.8939 34.3593 57.5227 34.1101 58.1833 34.0356C58.8439 33.9611 59.5124 34.064 60.12 34.3337C60.7274 34.5999 61.2534 35.0225 61.6443 35.5583C62.0351 36.0941 62.2769 36.724 62.345 37.3837C62.8882 42.0242 61.9734 46.7187 59.7275 50.8157C57.4816 54.9127 54.016 58.2089 49.8117 60.2468C45.6074 62.2848 40.8729 62.9633 36.2654 62.1883C31.658 61.4133 27.406 59.2232 24.0998 55.922C20.7935 52.6208 18.597 48.3722 17.815 43.7659C17.033 39.1596 17.7043 34.4241 19.7359 30.2167C21.7674 26.0093 25.0584 22.5387 29.1519 20.2865C33.2455 18.0344 37.9386 17.1125 42.5799 17.6487C43.0769 17.6948 43.5597 17.8397 44 18.0748C44.4402 18.3099 44.8291 18.6305 45.1439 19.0179C45.4586 19.4052 45.6929 19.8515 45.8329 20.3306C45.9729 20.8097 46.0159 21.3119 45.9593 21.8078C45.9028 22.3037 45.7477 22.7833 45.5034 23.2185C45.2591 23.6537 44.9303 24.0357 44.5364 24.3423C44.1425 24.6488 43.6914 24.8736 43.2094 25.0034C42.7275 25.1333 42.2245 25.1657 41.7299 25.0987C39.6282 24.8547 37.4987 25.058 35.4811 25.6955C33.4636 26.3329 31.6037 27.3899 30.0237 28.7971C28.4437 30.2043 27.1792 31.9298 26.3134 33.8604C25.4475 35.791 24.9999 37.8829 24.9999 39.9987Z" fill="black"/>
</svg>
