<svg width="80" height="80" viewBox="0 0 80 80" fill="none" xmlns="http://www.w3.org/2000/svg">
<path d="M61.9063 19.5634C60.0979 15.2454 57.0536 11.5582 53.1561 8.96499C49.2585 6.37179 44.6815 4.98828 40.0001 4.98828C35.3187 4.98828 30.7417 6.37179 26.8441 8.96499C22.9466 11.5582 19.9023 15.2454 18.0938 19.5634C14.2018 21.3657 10.9035 24.239 8.58477 27.8473C6.26599 31.4555 5.02261 35.6494 5.00009 39.9384C4.96571 52.0696 14.8001 62.1884 26.9188 62.5009C30.5849 62.5966 34.2183 61.7907 37.5001 60.154V72.5009C37.5001 73.1639 37.7635 73.7998 38.2323 74.2687C38.7012 74.7375 39.337 75.0009 40.0001 75.0009C40.6631 75.0009 41.299 74.7375 41.7679 74.2687C42.2367 73.7998 42.5001 73.1639 42.5001 72.5009V60.154C45.6057 61.7028 49.0297 62.5064 52.5001 62.5009H53.0813C65.2001 62.1884 75.0345 52.0759 75.0001 39.9446C74.9791 35.6545 73.7365 31.4591 71.4176 27.8496C69.0987 24.2401 65.7995 21.3659 61.9063 19.5634ZM52.9532 57.5009C49.3428 57.6016 45.7906 56.5748 42.7907 54.5634C42.6928 54.5009 42.5959 54.4415 42.5001 54.3853V41.5446L56.1188 34.7384C56.4127 34.5915 56.6747 34.3881 56.8899 34.1399C57.1052 33.8918 57.2694 33.6036 57.3733 33.292C57.4772 32.9803 57.5187 32.6512 57.4954 32.3236C57.4721 31.9959 57.3845 31.676 57.2376 31.3821C57.0907 31.0883 56.8873 30.8263 56.6391 30.611C56.391 30.3958 56.1028 30.2315 55.7912 30.1277C55.4795 30.0238 55.1504 29.9823 54.8228 30.0056C54.4951 30.0289 54.1752 30.1165 53.8813 30.2634L42.5001 35.9571V27.5009C42.5001 26.8378 42.2367 26.202 41.7679 25.7331C41.299 25.2643 40.6631 25.0009 40.0001 25.0009C39.337 25.0009 38.7012 25.2643 38.2323 25.7331C37.7635 26.202 37.5001 26.8378 37.5001 27.5009V43.4571L26.1188 37.7634C25.5254 37.4667 24.8384 37.4179 24.209 37.6277C23.5796 37.8375 23.0593 38.2887 22.7626 38.8821C22.4659 39.4756 22.4171 40.1625 22.6269 40.792C22.8367 41.4214 23.2879 41.9417 23.8813 42.2384L37.5001 49.0446V54.3759C37.4022 54.4321 37.3053 54.4915 37.2095 54.554C34.2098 56.5671 30.6582 57.597 27.047 57.5009C23.0946 57.4022 19.292 55.968 16.2589 53.432C13.2257 50.896 11.1407 47.4076 10.3434 43.5352C9.5462 39.6627 10.0837 35.6345 11.8685 32.1066C13.6532 28.5787 16.58 25.7591 20.172 24.1071C21.308 23.5866 22.2062 22.6572 22.6876 21.504C24.1146 18.0936 26.5179 15.1811 29.5955 13.1327C32.6731 11.0843 36.2875 9.99146 39.9845 9.99146C43.6814 9.99146 47.2958 11.0843 50.3734 13.1327C53.451 15.1811 55.8543 18.0936 57.2813 21.504C57.7627 22.6572 58.6609 23.5866 59.797 24.1071C63.389 25.7591 66.3157 28.5787 68.1005 32.1066C69.8852 35.6345 70.4227 39.6627 69.6255 43.5352C68.8282 47.4076 66.7432 50.896 63.7101 53.432C60.6769 55.968 56.8744 57.4022 52.922 57.5009H52.9532Z" fill="black"/>
</svg>
